Coordinates
version=1
nRows=21
nColumns=22
inDegrees=yes

Units are S.I. units (second, meters, Newtons, ...)
If the header above contains a line with 'inDegrees', this indicates whether rotational values are in degrees (yes) or radians (no).

endheader
time	pelvis_tilt	pelvis_list	pelvis_rotation	pelvis_tx	pelvis_ty	pelvis_tz	hip_flexion_r	hip_adduction_r	hip_rotation_r	knee_angle_r	ankle_angle_r	subtalar_angle_r	hip_flexion_l	hip_adduction_l	hip_rotation_l	knee_angle_l	ankle_angle_l	subtalar_angle_l	lumbar_extension	lumbar_bending	lumbar_rotation
      1.58000000	      9.36243770	     -2.32911511	     77.51657958	      1.11831595	      0.88701622	      0.28856020	    -15.98599364	      7.70842496	     -4.69718388	     -9.55429515	     16.84884488	      6.25896632	     33.21652846	     -8.80995262	    -19.87742569	    -20.14898251	      7.15197739	     -7.60984816	     -7.91734695	      4.93669146	      6.90728744
      1.59000000	      9.22565435	     -2.46217957	     77.62647793	      1.11962600	      0.88483979	      0.27780654	    -16.27154010	      7.48600307	     -4.47118388	    -10.07012494	     16.82686556	      6.48505840	     33.54916588	     -9.01749303	    -21.06107685	    -21.07757741	      6.96657724	     -8.42275792	     -7.50934438	      4.62885563	      7.00717313
      1.60000000	      9.02438522	     -2.58298570	     77.78526735	      1.12076686	      0.88291113	      0.26678497	    -16.49405534	      7.19939140	     -4.28306120	    -10.70415463	     16.66260393	      6.74138935	     33.89209309	     -9.13180736	    -21.93997988	    -22.32472687	      6.60002846	     -9.49675941	     -7.07110945	      4.24194433	      7.06080577
      1.61000000	      8.74509494	     -2.68199323	     78.02271416	      1.12164222	      0.88128206	      0.25547271	    -16.66078011	      6.83926662	     -4.18317318	    -11.45340921	     16.32089366	      7.05033145	     34.21982136	     -9.08803765	    -22.46967581	    -23.74261264	      6.05675175	    -10.80400942	     -6.60687715	      3.76705538	      7.04074151
      1.62000000	      8.35268201	     -2.77137533	     78.35313481	      1.12219866	      0.87997590	      0.24386752	    -16.74959614	      6.37892502	     -4.16444480	    -12.31947769	     15.83035896	      7.42374968	     34.52620388	     -8.81424657	    -22.64261557	    -25.19398955	      5.39754897	    -12.16425701	     -6.09672901	      3.16810534	      6.91151565
      1.63000000	      7.86351327	     -2.82548726	     78.80185796	      1.12235071	      0.87906303	      0.23198066	    -16.78679581	      5.83216313	     -4.28983855	    -13.30699390	     15.12748760	      7.86053289	     34.77547464	     -8.28127459	    -22.42966368	    -26.59614497	      4.71456224	    -13.43862796	     -5.58361962	      2.46471618	      6.67240524
      1.64000000	      7.27520207	     -2.84990119	     79.35369982	      1.12211188	      0.87858029	      0.21985190	    -16.74991317	      5.19208852	     -4.53408679	    -14.44537023	     14.19112546	      8.37575002	     34.94531571	     -7.48110500	    -21.87338320	    -27.87042234	      4.07153262	    -14.49784053	     -5.07264984	      1.65060342	      6.36316299
      1.65000000	      6.60535080	     -2.83674468	     80.01902274	      1.12145603	      0.87853883	      0.20750201	    -16.64801361	      4.47355660	     -4.90857840	    -15.74116052	     13.04525640	      8.94447133	     35.00653617	     -6.42289293	    -21.02049214	    -28.97530320	      3.50484636	    -15.24016146	     -4.58582787	      0.74798977	      5.96977242
      1.66000000	      5.89459105	     -2.79065199	     80.75681412	      1.12049553	      0.87893215	      0.19494428	    -16.47924546	      3.70622305	     -5.33888827	    -17.20240462	     11.58539574	      9.70921095	     34.94166802	     -5.21084907	    -20.05628380	    -29.92455040	      3.12426432	    -15.84903167	     -4.12933596	     -0.20100351	      5.52788908
      1.67000000	      5.19658362	     -2.69241608	     81.55326116	      1.11924573	      0.87975311	      0.18231841	    -16.22169739	      2.92782827	     -5.83434966	    -18.90556045	      9.87318046	     10.49682346	     34.71020751	     -3.90779627	    -18.98986226	    -30.69629348	      2.91768152	    -16.21622049	     -3.76271627	     -1.13540770	      5.09668214
      1.68000000	      4.55459592	     -2.55894766	     82.38242812	      1.11777941	      0.88093229	      0.16972519	    -15.84328460	      2.17699409	     -6.33049917	    -20.86463777	      7.90778474	     11.23579027	     34.32458512	     -2.60123562	    -17.90415375	    -31.30467473	      2.87451887	    -16.45059182	     -3.48327408	     -1.99877893	      4.69195464
      1.69000000	      3.98280400	     -2.40710747	     83.16448459	      1.11626332	      0.88241152	      0.15721159	    -15.31685631	      1.45901503	     -6.65556261	    -23.06740955	      5.61848329	     12.13839284	     33.78205906	     -1.38460969	    -16.95620007	    -31.75227111	      3.10942058	    -16.68471058	     -3.26969099	     -2.77370255	      4.36438624
      1.70000000	      3.51134444	     -2.24988284	     83.91619563	      1.11466869	      0.88407802	      0.14496574	    -14.59023183	      0.80447462	     -6.87220542	    -25.55286962	      3.13683679	     12.83181660	     33.12533117	     -0.28089917	    -16.07940708	    -32.05613247	      3.47188249	    -16.87686097	     -3.13396201	     -3.41830966	      4.11166875
      1.71000000	      3.12861320	     -2.10131777	     84.61220189	      1.11304756	      0.88584298	      0.13306228	    -13.63671371	      0.19982058	     -6.95398920	    -28.30743261	      0.49873708	     13.23429783	     32.37952250	      0.68984961	    -15.32955530	    -32.22462155	      3.92103802	    -17.01911301	     -3.06120945	     -3.94172354	      3.93070982
      1.72000000	      2.82371853	     -1.97697088	     85.19664522	      1.11151929	      0.88762893	      0.12155137	    -12.43676223	     -0.35563404	     -6.78116926	    -31.30100888	     -2.23445223	     13.66227623	     31.56390123	      1.49972374	    -14.76506481	    -32.25965753	      4.56480365	    -17.22713827	     -3.02641775	     -4.35870201	      3.85403316
      1.73000000	      2.57606122	     -1.87199968	     85.69375760	      1.11004959	      0.88936629	      0.11049581	    -10.99332591	     -0.88327042	     -6.47249631	    -34.51576856	     -4.96203989	     13.84094510	     30.71024771	      2.17111167	    -14.39139307	    -32.19676809	      5.22363855	    -17.38523003	     -3.04314066	     -4.69180962	      3.84992219
      1.74000000	      2.35646267	     -1.79559678	     86.10115145	      1.10865743	      0.89099143	      0.09990024	     -9.31062169	     -1.40011353	     -6.02428272	    -37.90582522	     -7.57513947	     13.93633597	     29.84084233	      2.73729925	    -14.19330452	    -32.04130686	      5.90039061	    -17.50976343	     -3.09366416	     -4.97636448	      3.90814424
      1.75000000	      2.14492604	     -1.74533082	     86.43130619	      1.10733107	      0.89246548	      0.08975307	     -7.41126269	     -1.92205895	     -5.48439550	    -41.42024840	     -9.97962040	     13.99764452	     28.97508655	      3.22702164	    -14.15218441	    -31.81871314	      6.55427976	    -17.59312170	     -3.17593969	     -5.23577326	      4.01533418
      1.76000000	      1.92804080	     -1.74187070	     86.71234231	      1.10604737	      0.89373135	      0.08002363	     -5.30575370	     -2.43692806	     -4.85511899	    -44.98959630	    -12.04206887	     14.04419724	     28.15194653	      3.67488981	    -14.20955141	    -31.54821792	      7.21076228	    -17.64282924	     -3.25841929	     -5.48863416	      4.11746827
      1.77000000	      1.69645168	     -1.76454319	     86.97112212	      1.10475806	      0.89481009	      0.07065250	     -3.04921863	     -2.95858760	     -4.20156262	    -48.54741104	    -13.69137491	     14.00373053	     27.36607223	      4.10806196	    -14.32585980	    -31.25657424	      7.80235931	    -17.63442260	     -3.35825801	     -5.74542706	      4.21371443
      1.78000000	      1.45085314	     -1.81142746	     87.24076638	      1.10340862	      0.89572212	      0.06157580	     -0.68608348	     -3.46504435	     -3.51825362	    -52.01476801	    -14.84236998	     13.83401856	     26.61675817	      4.55544046	    -14.42320645	    -30.94446904	      8.33071754	    -17.57578615	     -3.46796206	     -6.00534092	      4.27539200
